<svg width="27" height="20" viewBox="0 0 27 20" fill="none" xmlns="http://www.w3.org/2000/svg">
<path d="M10 10C11.3261 10 12.5979 9.47322 13.5355 8.53553C14.4732 7.59785 15 6.32608 15 5C15 3.67392 14.4732 2.40215 13.5355 1.46447C12.5979 0.526784 11.3261 0 10 0C8.67392 0 7.40215 0.526784 6.46447 1.46447C5.52678 2.40215 5 3.67392 5 5C5 6.32608 5.52678 7.59785 6.46447 8.53553C7.40215 9.47322 8.67392 10 10 10ZM13.3333 5C13.3333 5.88405 12.9821 6.7319 12.357 7.35702C11.7319 7.98214 10.8841 8.33333 10 8.33333C9.11594 8.33333 8.2681 7.98214 7.64298 7.35702C7.01786 6.7319 6.66667 5.88405 6.66667 5C6.66667 4.11594 7.01786 3.2681 7.64298 2.64298C8.2681 2.01786 9.11594 1.66667 10 1.66667C10.8841 1.66667 11.7319 2.01786 12.357 2.64298C12.9821 3.2681 13.3333 4.11594 13.3333 5ZM20 18.3333C20 20 18.3333 20 18.3333 20H1.66667C1.66667 20 0 20 0 18.3333C0 16.6667 1.66667 11.6667 10 11.6667C18.3333 11.6667 20 16.6667 20 18.3333ZM18.3333 18.3267C18.3317 17.9167 18.0767 16.6833 16.9467 15.5533C15.86 14.4667 13.815 13.3333 10 13.3333C6.18333 13.3333 4.14 14.4667 3.05333 15.5533C1.92333 16.6833 1.67 17.9167 1.66667 18.3267H18.3333Z" fill="white"/>
<path fill-rule="evenodd" clip-rule="evenodd" d="M22.5 5C22.7387 5 22.9676 5.08429 23.1364 5.23431C23.3052 5.38434 23.4 5.58783 23.4 5.8V8.2H26.1C26.3387 8.2 26.5676 8.28429 26.7364 8.43431C26.9052 8.58434 27 8.78783 27 9C27 9.21217 26.9052 9.41566 26.7364 9.56569C26.5676 9.71571 26.3387 9.8 26.1 9.8H23.4V12.2C23.4 12.4122 23.3052 12.6157 23.1364 12.7657C22.9676 12.9157 22.7387 13 22.5 13C22.2613 13 22.0324 12.9157 21.8636 12.7657C21.6948 12.6157 21.6 12.4122 21.6 12.2V9.8H18.9C18.6613 9.8 18.4324 9.71571 18.2636 9.56569C18.0948 9.41566 18 9.21217 18 9C18 8.78783 18.0948 8.58434 18.2636 8.43431C18.4324 8.28429 18.6613 8.2 18.9 8.2H21.6V5.8C21.6 5.58783 21.6948 5.38434 21.8636 5.23431C22.0324 5.08429 22.2613 5 22.5 5Z" fill="white"/>
</svg>
