<svg width="20" height="20" viewBox="0 0 20 20" fill="none" xmlns="http://www.w3.org/2000/svg">
<path fill-rule="evenodd" clip-rule="evenodd" d="M1.66669 10.0125C1.66669 5.62261 5.17502 1.66667 10.0167 1.66667C14.75 1.66667 18.3334 5.5475 18.3334 9.9875C18.3334 15.1368 14.1334 18.3333 10 18.3333C8.63335 18.3333 7.11669 17.9661 5.90002 17.2483C5.47502 16.9897 5.11669 16.7977 4.65835 16.9479L2.97502 17.4487C2.55002 17.5822 2.16669 17.2483 2.29169 16.7977L2.85002 14.9283C2.94169 14.6695 2.92502 14.3941 2.79169 14.1771C2.07502 12.8584 1.66669 11.4146 1.66669 10.0125ZM8.91669 10.0125C8.91669 10.6051 9.39169 11.0808 9.98335 11.0892C10.575 11.0892 11.05 10.6051 11.05 10.0208C11.05 9.42834 10.575 8.95259 9.98335 8.95259C9.40002 8.94426 8.91669 9.42834 8.91669 10.0125ZM12.7584 10.0208C12.7584 10.6051 13.2334 11.0892 13.825 11.0892C14.4167 11.0892 14.8917 10.6051 14.8917 10.0208C14.8917 9.42834 14.4167 8.95259 13.825 8.95259C13.2334 8.95259 12.7584 9.42834 12.7584 10.0208ZM6.14169 11.0892C5.55835 11.0892 5.07502 10.6051 5.07502 10.0208C5.07502 9.42834 5.55002 8.95259 6.14169 8.95259C6.73335 8.95259 7.20835 9.42834 7.20835 10.0208C7.20835 10.6051 6.73335 11.0808 6.14169 11.0892Z" fill="#2F3542"/>
</svg>
