<svg width="18" height="20" viewBox="0 0 18 20" fill="none" xmlns="http://www.w3.org/2000/svg">
<path d="M12.3075 16.25C12.1025 17.8943 10.6998 19.1667 8.99995 19.1667C7.30011 19.1667 5.89744 17.8943 5.6924 16.25H2.36564C1.44517 16.25 0.698975 15.5038 0.698975 14.5833C0.698975 14.214 0.821663 13.8551 1.04777 13.5631L2.33326 11.9026V7.50001C2.33326 3.81811 5.31803 0.833344 8.99993 0.833344C12.6818 0.833344 15.6666 3.81811 15.6666 7.50001V11.9026L16.9521 13.5631C17.5156 14.2909 17.3823 15.3377 16.6545 15.9012C16.3624 16.1273 16.0036 16.25 15.6342 16.25H12.3075ZM10.6141 16.25H7.38579C7.5708 16.9689 8.22335 17.5 8.99995 17.5C9.77655 17.5 10.4291 16.9689 10.6141 16.25ZM3.99993 7.50001V12.1875C3.99993 12.3722 3.93858 12.5516 3.82553 12.6977L2.36564 14.5833H15.6342L14.1743 12.6977C14.0613 12.5516 13.9999 12.3722 13.9999 12.1875V7.50001C13.9999 4.73859 11.7614 2.50001 8.99993 2.50001C6.2385 2.50001 3.99993 4.73859 3.99993 7.50001Z" fill="#2F3542"/>
</svg>
